name C:/MyDriveSym/Projects/mobilecap/Data\Session20210903_0001\mocap\ForceDataProcessed\DJ3_forces.mot
datacolumns 28
datarows 16
range 1.15450000 1.16200000
endheader 
time	R_ground_force_vx	R_ground_force_vy	R_ground_force_vz	R_ground_force_px	R_ground_force_py	R_ground_force_pz	R_ground_torque_x	R_ground_torque_y	R_ground_torque_z	L_ground_force_vx	L_ground_force_vy	L_ground_force_vz	L_ground_force_px	L_ground_force_py	L_ground_force_pz	L_ground_torque_x	L_ground_torque_y	L_ground_torque_z	3_ground_force_vx	3_ground_force_vy	3_ground_force_vz	3_ground_force_px	3_ground_force_py	3_ground_force_pz	3_ground_torque_x	3_ground_torque_y	3_ground_torque_z	
          1.15450000	       -130.08350300	        404.73198100	         26.73468000	         -0.26105900	          0.00600000	         -0.46108500	          0.00000000	         -0.31677400	          0.00000000	       -174.60454600	        455.54559400	         18.58113800	         -0.23285500	          0.00600000	         -0.75814500	          0.00000000	          3.40695600	          0.00000000	          0.00000000	          0.00000000	          0.00000000	          0.00000000	          0.00000000	          0.00000000	          0.00000000	          0.00000000	          0.00000000	
          1.15500000	       -132.48165700	        389.70925300	         24.60904200	         -0.25841700	          0.00600000	         -0.46059600	          0.00000000	         -0.37978000	          0.00000000	       -178.15266700	        447.96365300	         21.49851000	         -0.23038300	          0.00600000	         -0.75890000	          0.00000000	          3.23268500	          0.00000000	          0.00000000	          0.00000000	          0.00000000	          0.00000000	          0.00000000	          0.00000000	          0.00000000	          0.00000000	          0.00000000	
          1.15550000	       -134.91864800	        375.52629200	         22.32574700	         -0.25567000	          0.00600000	         -0.46005300	          0.00000000	         -0.44512800	          0.00000000	       -181.54241100	        440.76571200	         24.21051400	         -0.22793300	          0.00600000	         -0.75963500	          0.00000000	          3.05412100	          0.00000000	          0.00000000	          0.00000000	          0.00000000	          0.00000000	          0.00000000	          0.00000000	          0.00000000	          0.00000000	          0.00000000	
          1.15600000	       -137.38913700	        362.15902700	         19.90484800	         -0.25282900	          0.00600000	         -0.45945700	          0.00000000	         -0.51119400	          0.00000000	       -184.77220600	        433.95132600	         26.73236900	         -0.22551700	          0.00600000	         -0.76034800	          0.00000000	          2.87274600	          0.00000000	          0.00000000	          0.00000000	          0.00000000	          0.00000000	          0.00000000	          0.00000000	          0.00000000	          0.00000000	          0.00000000	
          1.15650000	       -139.88539700	        349.58447600	         17.36674600	         -0.24990500	          0.00600000	         -0.45881100	          0.00000000	         -0.57656900	          0.00000000	       -187.84067000	        427.51994100	         29.08094300	         -0.22314200	          0.00600000	         -0.76103800	          0.00000000	          2.69017500	          0.00000000	          0.00000000	          0.00000000	          0.00000000	          0.00000000	          0.00000000	          0.00000000	          0.00000000	          0.00000000	          0.00000000	
          1.15700000	       -142.39792000	        337.78130200	         14.73259600	         -0.24691200	          0.00600000	         -0.45811800	          0.00000000	         -0.64000000	          0.00000000	       -190.74657700	        421.47083300	         31.27400500	         -0.22081800	          0.00600000	         -0.76170500	          0.00000000	          2.50833700	          0.00000000	          0.00000000	          0.00000000	          0.00000000	          0.00000000	          0.00000000	          0.00000000	          0.00000000	          0.00000000	          0.00000000	
          1.15750000	       -144.91625700	        326.72977100	         12.02452100	         -0.24386400	          0.00600000	         -0.45737900	          0.00000000	         -0.70037400	          0.00000000	       -193.48944000	        415.80309300	         33.32961000	         -0.21855200	          0.00600000	         -0.76234900	          0.00000000	          2.32944600	          0.00000000	          0.00000000	          0.00000000	          0.00000000	          0.00000000	          0.00000000	          0.00000000	          0.00000000	          0.00000000	          0.00000000	
          1.15800000	       -147.42992700	        316.41142000	          9.26532000	         -0.24077400	          0.00600000	         -0.45660000	          0.00000000	         -0.75673100	          0.00000000	       -196.07045100	        410.51564800	         35.26543000	         -0.21634900	          0.00600000	         -0.76297100	          0.00000000	          2.15575900	          0.00000000	          0.00000000	          0.00000000	          0.00000000	          0.00000000	          0.00000000	          0.00000000	          0.00000000	          0.00000000	          0.00000000	
          1.15850000	       -149.92929100	        306.80875000	          6.47765500	         -0.23765700	          0.00600000	         -0.45578500	          0.00000000	         -0.80825800	          0.00000000	       -198.49323700	        405.60713500	         37.09791600	         -0.21421700	          0.00600000	         -0.76357000	          0.00000000	          1.98922800	          0.00000000	          0.00000000	          0.00000000	          0.00000000	          0.00000000	          0.00000000	          0.00000000	          0.00000000	          0.00000000	          0.00000000	
          1.15900000	       -152.40637800	        297.90512000	          3.68300400	         -0.23452700	          0.00600000	         -0.45493900	          0.00000000	         -0.85427400	          0.00000000	       -200.76409100	        401.07561500	         38.84142400	         -0.21215900	          0.00600000	         -0.76414700	          0.00000000	          1.83116500	          0.00000000	          0.00000000	          0.00000000	          0.00000000	          0.00000000	          0.00000000	          0.00000000	          0.00000000	          0.00000000	          0.00000000	
          1.15950000	       -154.85557100	        289.68483800	          0.90075700	         -0.23139800	          0.00600000	         -0.45406900	          0.00000000	         -0.89420000	          0.00000000	       -202.89161300	        396.91831300	         40.50778300	         -0.21017900	          0.00600000	         -0.76470100	          0.00000000	          1.68208800	          0.00000000	          0.00000000	          0.00000000	          0.00000000	          0.00000000	          0.00000000	          0.00000000	          0.00000000	          0.00000000	          0.00000000	
          1.16000000	       -157.27390800	        282.13326300	         -1.85231500	         -0.22828700	          0.00600000	         -0.45318200	          0.00000000	         -0.92759700	          0.00000000	       -204.88582400	        393.13146800	         42.10636400	         -0.20828100	          0.00600000	         -0.76523200	          0.00000000	          1.54175600	          0.00000000	          0.00000000	          0.00000000	          0.00000000	          0.00000000	          0.00000000	          0.00000000	          0.00000000	          0.00000000	          0.00000000	
          1.16050000	       -159.66090900	        275.23675600	         -4.56213900	         -0.22520600	          0.00600000	         -0.45228400	          0.00000000	         -0.95424500	          0.00000000	       -206.75699100	        389.71025600	         43.64425900	         -0.20646800	          0.00600000	         -0.76574000	          0.00000000	          1.40939500	          0.00000000	          0.00000000	          0.00000000	          0.00000000	          0.00000000	          0.00000000	          0.00000000	          0.00000000	          0.00000000	          0.00000000	
          1.16100000	       -162.01812900	        268.98244800	         -7.21700700	         -0.22216900	          0.00600000	         -0.45138300	          0.00000000	         -0.97416800	          0.00000000	       -208.51447700	        386.64872100	         45.12643000	         -0.20474100	          0.00600000	         -0.76622500	          0.00000000	          1.28402200	          0.00000000	          0.00000000	          0.00000000	          0.00000000	          0.00000000	          0.00000000	          0.00000000	          0.00000000	          0.00000000	          0.00000000	
          1.16150000	       -164.34874000	        263.35791300	         -9.80695000	         -0.21919100	          0.00600000	         -0.45048600	          0.00000000	         -0.98757000	          0.00000000	       -210.16596800	        383.93961400	         46.55605500	         -0.20310000	          0.00600000	         -0.76668600	          0.00000000	          1.16477100	          0.00000000	          0.00000000	          0.00000000	          0.00000000	          0.00000000	          0.00000000	          0.00000000	          0.00000000	          0.00000000	          0.00000000	
          1.16200000	       -166.65729800	        258.35089900	        -12.32307300	         -0.21628600	          0.00600000	         -0.44960100	          0.00000000	         -0.99471900	          0.00000000	       -211.71726900	        381.57420900	         47.93517600	         -0.20154700	          0.00600000	         -0.76712300	          0.00000000	          1.05113600	          0.00000000	          0.00000000	          0.00000000	          0.00000000	          0.00000000	          0.00000000	          0.00000000	          0.00000000	          0.00000000	          0.00000000	
